<svg id="nav-logo" xmlns="http://www.w3.org/2000/svg" width="100%" height="100%" viewBox="0 0 230.39 16.746">
  <rect id="container" width="100%" height="100%" fill="none"></rect>
  <path id="Path_3448" data-name="Path 3448" d="M8.155,2.585H13.32a.276.276,0,0,0,.287-.264.169.169,0,0,0,0-.022V.529a.3.3,0,0,0-.28-.31H.288A.3.3,0,0,0,0,.523V2.3a.276.276,0,0,0,.264.287H5.477V7.779q1.331.354,2.678.655ZM24.584,10.26a5.119,5.119,0,0,0,1.937-.982,4.723,4.723,0,0,0,1.865-3.922A4.891,4.891,0,0,0,26.473,1.22a6.845,6.845,0,0,0-4.04-1h-6.72a.312.312,0,0,0-.287.311V9.674c3.019.369,6.092.577,9.207.655ZM21.978,8.252H18.1V2.489h4.088a4.151,4.151,0,0,1,2.343.526A2.575,2.575,0,0,1,25.658,5.38a2.548,2.548,0,0,1-1.171,2.368,4.718,4.718,0,0,1-2.509.5M37.434,3.4l2.4,6.436q1.3-.1,2.607-.227L39.036.456a.45.45,0,0,0-.478-.311h-2.2a.421.421,0,0,0-.454.311L32.2,10.286q1.339-.047,2.686-.118ZM61.035.529a.316.316,0,0,0-.311-.311H58.763a.3.3,0,0,0-.287.3V7.679q1.278-.178,2.558-.36ZM49.273,4.641,52.3,8.5q1.521-.194,3.048-.4L49.415.529a.611.611,0,0,0-.55-.311H47a.312.312,0,0,0-.288.311V9.174q1.277-.142,2.559-.294ZM65.84,4.4a1.746,1.746,0,0,1,.693-1.435,3.61,3.61,0,0,1,2.343-.645,8.1,8.1,0,0,1,3.992,1.149.271.271,0,0,0,.377-.065.288.288,0,0,0,.029-.054L74.112,1.6a.286.286,0,0,0-.1-.393L73.993,1.2A10.229,10.229,0,0,0,69.021,0a7.087,7.087,0,0,0-4.448,1.244,3.981,3.981,0,0,0-1.554,3.275,3.718,3.718,0,0,0,.778,2.4l3.975-.575C66.6,5.916,65.84,5.374,65.84,4.4M84.058,2.417A7.971,7.971,0,0,1,88,3.493c.143.072.311.072.382-.12l.837-1.745a.269.269,0,0,0-.073-.373.262.262,0,0,0-.069-.033A9.767,9.767,0,0,0,84.132,0a8.555,8.555,0,0,0-7.968,5.162q1.687-.233,3.369-.457a5.728,5.728,0,0,1,4.525-2.29M93.979.529a.313.313,0,0,0-.287-.311h-2.1A.312.312,0,0,0,91.3.529V3.322q1.342-.13,2.678-.243Zm11.262,0a.3.3,0,0,0-.28-.31h-2.086a.317.317,0,0,0-.311.311v2.03q1.343-.045,2.678-.061Zm14.87,2.056a.276.276,0,0,0,.287-.265.163.163,0,0,0,0-.022V.529a.3.3,0,0,0-.281-.311H108.729a.312.312,0,0,0-.287.311V2.493q1.655.02,3.3.092ZM125.178.529a.475.475,0,0,0-.529-.311h-2.127a.312.312,0,0,0-.288.311V3.615c1.813.29,3.613.637,5.4,1.056Zm11.046,4.352V7.3q1.3.493,2.582,1.045V.529a.3.3,0,0,0-.281-.311h-2.134a.515.515,0,0,0-.55.311l-3.265,5.5c.826.26,1.649.534,2.469.828Z" fill="#004f8c"></path>
  <path id="Path_3449" data-name="Path 3449" d="M10.959,20.172a.276.276,0,0,0,.264.287h2.1a.3.3,0,0,0,.311-.282V12.6q-1.349-.337-2.678-.723Zm9.95,0a.291.291,0,0,0,.287.287h2.1a.291.291,0,0,0,.287-.287V14.458h.05q-1.371-.175-2.729-.387Zm10.113-.024a.55.55,0,0,0,.574.311h2.32c.334,0,.286-.263.143-.5l-3.369-4.843q-1.626-.1-3.236-.241Zm6.244-4.815L35.5,20a1.04,1.04,0,0,0-.05.24c0,.119.072.215.263.215h2.056a.434.434,0,0,0,.479-.311L39.494,16.8H46.31l1.218,3.348a.434.434,0,0,0,.479.311h2.1c.215,0,.287-.1.287-.215a.916.916,0,0,0-.072-.24l-1.854-4.975c-3.775.225-7.516.338-11.207.305m26.695.726L62.2,13.815q-1.549.175-3.092.336l4.707,6a.521.521,0,0,0,.526.311h1.865a.3.3,0,0,0,.311-.282V13.3q-1.28.16-2.558.31ZM52.2,20.172a.291.291,0,0,0,.288.287h1.984a.276.276,0,0,0,.287-.265.163.163,0,0,0,0-.022V14.567q-1.282.112-2.559.21ZM71.839,12.61c1.182.48,2.363.735,3.4,1.155,1.172.454,2.056,1.076,2.056,2.176a2.19,2.19,0,0,1-.884,1.841,3.732,3.732,0,0,1-2.272.622A8.267,8.267,0,0,1,69.624,16.9a.235.235,0,0,0-.383.1L68.4,18.762a.271.271,0,0,0,.066.377.263.263,0,0,0,.053.029,10.549,10.549,0,0,0,5.643,1.53,6.852,6.852,0,0,0,4.28-1.266,4.528,4.528,0,0,0,1.77-3.707,4.051,4.051,0,0,0-2.009-3.586,6.586,6.586,0,0,0-.584-.331l-.444.061q-2.672.38-5.342.742m9.164-.3c0,5.117,3.491,8.393,8.537,8.393a10.156,10.156,0,0,0,5.116-1.243.256.256,0,0,0,.173-.317.249.249,0,0,0-.029-.065l-.837-1.794a.241.241,0,0,0-.383-.095,7.855,7.855,0,0,1-4.016,1.1A5.748,5.748,0,0,1,83.777,12.3a6.027,6.027,0,0,1,.171-1.4l-2.881.412a8.424,8.424,0,0,0-.064.991m27.041-1.219H99.461V8.9q-1.337.142-2.678.3V20.172a.291.291,0,0,0,.287.287h2.1a.291.291,0,0,0,.287-.287v-6.7h8.584v6.7a.3.3,0,0,0,.306.287h2.085a.276.276,0,0,0,.287-.264.173.173,0,0,0,0-.022V8.037q-1.337.058-2.678.137Zm5.88-3.151V20.172a.291.291,0,0,0,.287.287h11.382a.276.276,0,0,0,.287-.265.16.16,0,0,0,0-.022V18.379a.292.292,0,0,0-.287-.287H116.6V13.477h7.746a.291.291,0,0,0,.287-.287V11.4a.276.276,0,0,0-.265-.287H116.6v-3.2q-1.337-.005-2.678.02m27.782,3.771v8.467a.291.291,0,0,0,.287.287H144a.276.276,0,0,0,.287-.265.153.153,0,0,0,0-.021V12.65q-1.285-.5-2.583-.945m-13.988,8.467a.291.291,0,0,0,.288.287h2.008a.276.276,0,0,0,.287-.265.165.165,0,0,0,0-.022V8.933q-1.287-.2-2.583-.357Zm8.274-6.7-2.338-3.943q-1.636-.331-3.289-.592l4.456,7.333a.45.45,0,0,0,.478.287H136.8a.468.468,0,0,0,.478-.287l3-5.037q-1.256-.394-2.523-.735Z" transform="translate(-5.482 -3.958)" fill="#0099dc"></path>
  <path id="Path_3450" data-name="Path 3450" d="M301.833,1.9c.117.093.165.164.117.305l-.3.634c-.071.117-.165.094-.283.047a8.257,8.257,0,0,0-4.487-1.315,7.21,7.21,0,0,0-7.071,7.188,6.9,6.9,0,0,0,7.071,7.259,7.635,7.635,0,0,0,5.074-1.833V10.191h-5.637a.176.176,0,0,1-.142-.165v-.68a.157.157,0,0,1,.142-.165h6.507a.159.159,0,0,1,.164.156V16.6a.16.16,0,0,1-.155.165h-.737a.157.157,0,0,1-.142-.165V15.288A8.1,8.1,0,0,1,296.83,17a7.848,7.848,0,0,1-8.2-8.246,8.276,8.276,0,0,1,8.246-8.2A9.193,9.193,0,0,1,301.833,1.9m13.211,8.269,5.029,6.319c.094.141.094.282-.094.282h-.892c-.188,0-.236-.023-.329-.165L313.7,10.191h-4.557V16.6a.161.161,0,0,1-.158.165h-.807a.159.159,0,0,1-.164-.156V.935a.16.16,0,0,1,.155-.164h6.093a6.71,6.71,0,0,1,3.829.846A4.215,4.215,0,0,1,320,5.493,4.273,4.273,0,0,1,318.1,9.3a5.43,5.43,0,0,1-3.053.869m-5.9-8.433v7.5h4.815a6.354,6.354,0,0,0,3.265-.588,3.38,3.38,0,0,0,1.621-3.148,3.4,3.4,0,0,0-1.573-3.148,6.325,6.325,0,0,0-3.218-.611ZM331.7,17a8.222,8.222,0,1,1,8.268-8.2A8.222,8.222,0,0,1,331.7,17m0-15.386a7.083,7.083,0,1,0,7.093,6.977A7.146,7.146,0,0,0,331.7,1.617M356.6.935a.161.161,0,0,1,.157-.164h.806a.161.161,0,0,1,.165.157v9.522a6.592,6.592,0,0,1-1.574,4.6,6.7,6.7,0,0,1-5.1,1.949,6.612,6.612,0,0,1-5.074-1.949,6.6,6.6,0,0,1-1.6-4.6V.935a.177.177,0,0,1,.165-.164h.822a.157.157,0,0,1,.14.164v9.35a5.913,5.913,0,0,0,1.409,4.134,5.4,5.4,0,0,0,4.135,1.575,5.327,5.327,0,0,0,4.134-1.575,5.909,5.909,0,0,0,1.409-4.134Zm12.72-.164a5.509,5.509,0,0,1,3.617,1.081,4.8,4.8,0,0,1,1.833,4.017A5.005,5.005,0,0,1,372.8,10a6.4,6.4,0,0,1-3.829.964h-4.791V16.6a.161.161,0,0,1-.158.165h-.807a.16.16,0,0,1-.164-.156V.935a.161.161,0,0,1,.156-.164h6.116ZM372.1,2.6a4.807,4.807,0,0,0-2.983-.846h-4.932V9.98h4.6a5.6,5.6,0,0,0,3.195-.728,3.994,3.994,0,0,0,1.667-3.382A3.778,3.778,0,0,0,372.1,2.6" transform="translate(-144.39 -0.28)" fill="#3c3f41"></path>
</svg>